<svg id="visual" viewBox="0 0 900 600" width="900" height="600" xmlns="http://www.w3.org/2000/svg" xmlns:xlink="http://www.w3.org/1999/xlink" version="1.1"><path d="M0 365L10.7 380.7C21.3 396.3 42.7 427.7 64.2 430.3C85.7 433 107.3 407 128.8 399.2C150.3 391.3 171.7 401.7 193 410.8C214.3 420 235.7 428 257 430.2C278.3 432.3 299.7 428.7 321.2 424.2C342.7 419.7 364.3 414.3 385.8 416.5C407.3 418.7 428.7 428.3 450 435C471.3 441.7 492.7 445.3 514.2 449.7C535.7 454 557.3 459 578.8 447.2C600.3 435.3 621.7 406.7 643 398.8C664.3 391 685.7 404 707 416.3C728.3 428.7 749.7 440.3 771.2 444.3C792.7 448.3 814.3 444.7 835.8 437.3C857.3 430 878.7 419 889.3 413.5L900 408L900 601L889.3 601C878.7 601 857.3 601 835.8 601C814.3 601 792.7 601 771.2 601C749.7 601 728.3 601 707 601C685.7 601 664.3 601 643 601C621.7 601 600.3 601 578.8 601C557.3 601 535.7 601 514.2 601C492.7 601 471.3 601 450 601C428.7 601 407.3 601 385.8 601C364.3 601 342.7 601 321.2 601C299.7 601 278.3 601 257 601C235.7 601 214.3 601 193 601C171.7 601 150.3 601 128.8 601C107.3 601 85.7 601 64.2 601C42.7 601 21.3 601 10.7 601L0 601Z" fill="#0066FF" stroke-linecap="round" stroke-linejoin="miter"></path></svg>